<mxfile host="app.diagrams.net" agent="Mozilla/5.0 (Windows NT 10.0; Win64; x64) AppleWebKit/537.36 (KHTML, like Gecko) Chrome/139.0.0.0 Safari/537.36 Edg/139.0.0.0" version="27.1.4">
  <diagram name="Page-1" id="xxx">
    <mxGraphModel dx="1331" dy="750" grid="1" gridSize="10" guides="1" tooltips="1" connect="1" arrows="1" fold="1" page="1" pageScale="1" pageWidth="827" pageHeight="1169" math="0" shadow="0">
      <root>
        <mxCell id="0" />
        <mxCell id="1" parent="0" />
        <mxCell id="tfnsPjrBUmNJ-38otPb_-39" value="" style="group" vertex="1" connectable="0" parent="1">
          <mxGeometry x="60" y="40" width="459" height="217.5" as="geometry" />
        </mxCell>
        <mxCell id="2" value="" style="rounded=1;whiteSpace=wrap;html=1;fillColor=#e1d5e7;strokeColor=#9673a6;strokeWidth=2;" parent="tfnsPjrBUmNJ-38otPb_-39" vertex="1">
          <mxGeometry y="35" width="120" height="80" as="geometry" />
        </mxCell>
        <mxCell id="3" value="&lt;font style=&quot;font-size: 15px;&quot;&gt;训练Job&lt;/font&gt;" style="text;html=1;strokeColor=none;fillColor=none;align=center;verticalAlign=middle;whiteSpace=wrap;rounded=0;fontSize=16;fontStyle=1;" parent="tfnsPjrBUmNJ-38otPb_-39" vertex="1">
          <mxGeometry x="30" width="60" height="30" as="geometry" />
        </mxCell>
        <mxCell id="4" value="" style="ellipse;whiteSpace=wrap;html=1;fillColor=#dae8fc;strokeColor=#6c8ebf;" parent="tfnsPjrBUmNJ-38otPb_-39" vertex="1">
          <mxGeometry x="10" y="45" width="20" height="20" as="geometry" />
        </mxCell>
        <mxCell id="5" value="" style="ellipse;whiteSpace=wrap;html=1;fillColor=#dae8fc;strokeColor=#6c8ebf;" parent="tfnsPjrBUmNJ-38otPb_-39" vertex="1">
          <mxGeometry x="50" y="45" width="20" height="20" as="geometry" />
        </mxCell>
        <mxCell id="6" value="" style="ellipse;whiteSpace=wrap;html=1;fillColor=#dae8fc;strokeColor=#6c8ebf;" parent="tfnsPjrBUmNJ-38otPb_-39" vertex="1">
          <mxGeometry x="90" y="45" width="20" height="20" as="geometry" />
        </mxCell>
        <mxCell id="7" value="" style="ellipse;whiteSpace=wrap;html=1;fillColor=#dae8fc;strokeColor=#6c8ebf;" parent="tfnsPjrBUmNJ-38otPb_-39" vertex="1">
          <mxGeometry x="30" y="85" width="20" height="20" as="geometry" />
        </mxCell>
        <mxCell id="8" value="" style="ellipse;whiteSpace=wrap;html=1;fillColor=#dae8fc;strokeColor=#6c8ebf;" parent="tfnsPjrBUmNJ-38otPb_-39" vertex="1">
          <mxGeometry x="70" y="85" width="20" height="20" as="geometry" />
        </mxCell>
        <mxCell id="9" value="" style="endArrow=classic;html=1;rounded=0;exitX=1;exitY=0.5;exitDx=0;exitDy=0;entryX=0;entryY=0.5;entryDx=0;entryDy=0;" parent="tfnsPjrBUmNJ-38otPb_-39" source="4" target="5" edge="1">
          <mxGeometry width="50" height="50" relative="1" as="geometry">
            <mxPoint x="310" y="285" as="sourcePoint" />
            <mxPoint x="360" y="235" as="targetPoint" />
          </mxGeometry>
        </mxCell>
        <mxCell id="10" value="" style="endArrow=classic;html=1;rounded=0;exitX=1;exitY=0.5;exitDx=0;exitDy=0;entryX=0;entryY=0.5;entryDx=0;entryDy=0;" parent="tfnsPjrBUmNJ-38otPb_-39" source="5" target="6" edge="1">
          <mxGeometry width="50" height="50" relative="1" as="geometry">
            <mxPoint x="310" y="285" as="sourcePoint" />
            <mxPoint x="360" y="235" as="targetPoint" />
          </mxGeometry>
        </mxCell>
        <mxCell id="11" value="" style="endArrow=classic;html=1;rounded=0;exitX=0.5;exitY=1;exitDx=0;exitDy=0;entryX=0.5;entryY=0;entryDx=0;entryDy=0;" parent="tfnsPjrBUmNJ-38otPb_-39" source="5" target="7" edge="1">
          <mxGeometry width="50" height="50" relative="1" as="geometry">
            <mxPoint x="310" y="285" as="sourcePoint" />
            <mxPoint x="360" y="235" as="targetPoint" />
          </mxGeometry>
        </mxCell>
        <mxCell id="12" value="" style="endArrow=classic;html=1;rounded=0;exitX=0.5;exitY=1;exitDx=0;exitDy=0;entryX=0.5;entryY=0;entryDx=0;entryDy=0;" parent="tfnsPjrBUmNJ-38otPb_-39" source="6" target="8" edge="1">
          <mxGeometry width="50" height="50" relative="1" as="geometry">
            <mxPoint x="310" y="285" as="sourcePoint" />
            <mxPoint x="360" y="235" as="targetPoint" />
          </mxGeometry>
        </mxCell>
        <mxCell id="13" value="" style="rounded=1;whiteSpace=wrap;html=1;fillColor=#fff2cc;strokeColor=#d6b656;strokeWidth=2;" parent="tfnsPjrBUmNJ-38otPb_-39" vertex="1">
          <mxGeometry y="137.5" width="120" height="80" as="geometry" />
        </mxCell>
        <mxCell id="14" value="&lt;font style=&quot;font-size: 15px;&quot;&gt;推理Job&lt;/font&gt;" style="text;html=1;strokeColor=none;fillColor=none;align=center;verticalAlign=middle;whiteSpace=wrap;rounded=0;fontSize=16;fontStyle=1;" parent="tfnsPjrBUmNJ-38otPb_-39" vertex="1">
          <mxGeometry x="30" y="112" width="60" height="30" as="geometry" />
        </mxCell>
        <mxCell id="15" value="" style="ellipse;whiteSpace=wrap;html=1;fillColor=#f8cecc;strokeColor=#b85450;" parent="tfnsPjrBUmNJ-38otPb_-39" vertex="1">
          <mxGeometry x="10" y="147.5" width="20" height="20" as="geometry" />
        </mxCell>
        <mxCell id="16" value="" style="ellipse;whiteSpace=wrap;html=1;fillColor=#f8cecc;strokeColor=#b85450;" parent="tfnsPjrBUmNJ-38otPb_-39" vertex="1">
          <mxGeometry x="40" y="147.5" width="20" height="20" as="geometry" />
        </mxCell>
        <mxCell id="17" value="" style="ellipse;whiteSpace=wrap;html=1;fillColor=#f8cecc;strokeColor=#b85450;" parent="tfnsPjrBUmNJ-38otPb_-39" vertex="1">
          <mxGeometry x="70" y="147.5" width="20" height="20" as="geometry" />
        </mxCell>
        <mxCell id="18" value="" style="ellipse;whiteSpace=wrap;html=1;fillColor=#f8cecc;strokeColor=#b85450;" parent="tfnsPjrBUmNJ-38otPb_-39" vertex="1">
          <mxGeometry x="100" y="147.5" width="20" height="20" as="geometry" />
        </mxCell>
        <mxCell id="19" value="" style="ellipse;whiteSpace=wrap;html=1;fillColor=#f8cecc;strokeColor=#b85450;" parent="tfnsPjrBUmNJ-38otPb_-39" vertex="1">
          <mxGeometry x="40" y="187.5" width="20" height="20" as="geometry" />
        </mxCell>
        <mxCell id="20" value="" style="ellipse;whiteSpace=wrap;html=1;fillColor=#f8cecc;strokeColor=#b85450;" parent="tfnsPjrBUmNJ-38otPb_-39" vertex="1">
          <mxGeometry x="70" y="187.5" width="20" height="20" as="geometry" />
        </mxCell>
        <mxCell id="21" value="" style="endArrow=classic;html=1;rounded=0;exitX=1;exitY=0.5;exitDx=0;exitDy=0;entryX=0;entryY=0.5;entryDx=0;entryDy=0;" parent="tfnsPjrBUmNJ-38otPb_-39" source="15" target="16" edge="1">
          <mxGeometry width="50" height="50" relative="1" as="geometry">
            <mxPoint x="310" y="227.5" as="sourcePoint" />
            <mxPoint x="360" y="177.5" as="targetPoint" />
          </mxGeometry>
        </mxCell>
        <mxCell id="22" value="" style="endArrow=classic;html=1;rounded=0;exitX=1;exitY=0.5;exitDx=0;exitDy=0;entryX=0;entryY=0.5;entryDx=0;entryDy=0;" parent="tfnsPjrBUmNJ-38otPb_-39" source="16" target="17" edge="1">
          <mxGeometry width="50" height="50" relative="1" as="geometry">
            <mxPoint x="310" y="227.5" as="sourcePoint" />
            <mxPoint x="360" y="177.5" as="targetPoint" />
          </mxGeometry>
        </mxCell>
        <mxCell id="23" value="" style="endArrow=classic;html=1;rounded=0;exitX=1;exitY=0.5;exitDx=0;exitDy=0;entryX=0;entryY=0.5;entryDx=0;entryDy=0;" parent="tfnsPjrBUmNJ-38otPb_-39" source="17" target="18" edge="1">
          <mxGeometry width="50" height="50" relative="1" as="geometry">
            <mxPoint x="310" y="227.5" as="sourcePoint" />
            <mxPoint x="360" y="177.5" as="targetPoint" />
          </mxGeometry>
        </mxCell>
        <mxCell id="24" value="" style="endArrow=classic;html=1;rounded=0;exitX=0.5;exitY=1;exitDx=0;exitDy=0;entryX=0.5;entryY=0;entryDx=0;entryDy=0;" parent="tfnsPjrBUmNJ-38otPb_-39" source="16" target="19" edge="1">
          <mxGeometry width="50" height="50" relative="1" as="geometry">
            <mxPoint x="310" y="227.5" as="sourcePoint" />
            <mxPoint x="360" y="177.5" as="targetPoint" />
          </mxGeometry>
        </mxCell>
        <mxCell id="25" value="" style="endArrow=classic;html=1;rounded=0;exitX=0.5;exitY=1;exitDx=0;exitDy=0;entryX=0.5;entryY=0;entryDx=0;entryDy=0;" parent="tfnsPjrBUmNJ-38otPb_-39" source="17" target="20" edge="1">
          <mxGeometry width="50" height="50" relative="1" as="geometry">
            <mxPoint x="310" y="227.5" as="sourcePoint" />
            <mxPoint x="360" y="177.5" as="targetPoint" />
          </mxGeometry>
        </mxCell>
        <mxCell id="26" value="&lt;font style=&quot;font-size: 14px;&quot;&gt;GNN Performance&lt;br&gt;Predictor&lt;/font&gt;" style="rounded=1;whiteSpace=wrap;html=1;fillColor=#d5e8d4;strokeColor=#82b366;strokeWidth=3;fontSize=16;fontStyle=1;" parent="tfnsPjrBUmNJ-38otPb_-39" vertex="1">
          <mxGeometry x="170" y="72.5" width="150" height="100" as="geometry" />
        </mxCell>
        <mxCell id="27" value="" style="endArrow=classic;html=1;rounded=0;exitX=1;exitY=0.5;exitDx=0;exitDy=0;entryX=0;entryY=0.3;entryDx=0;entryDy=0;strokeWidth=1;strokeColor=#9673a6;" parent="tfnsPjrBUmNJ-38otPb_-39" source="2" target="26" edge="1">
          <mxGeometry width="50" height="50" relative="1" as="geometry">
            <mxPoint x="200" y="277.5" as="sourcePoint" />
            <mxPoint x="250" y="227.5" as="targetPoint" />
          </mxGeometry>
        </mxCell>
        <mxCell id="28" value="" style="endArrow=classic;html=1;rounded=0;exitX=1;exitY=0.5;exitDx=0;exitDy=0;entryX=0;entryY=0.7;entryDx=0;entryDy=0;strokeWidth=1;strokeColor=#d6b656;" parent="tfnsPjrBUmNJ-38otPb_-39" source="13" target="26" edge="1">
          <mxGeometry width="50" height="50" relative="1" as="geometry">
            <mxPoint x="200" y="277.5" as="sourcePoint" />
            <mxPoint x="250" y="227.5" as="targetPoint" />
          </mxGeometry>
        </mxCell>
        <mxCell id="29" value="&lt;font style=&quot;font-size: 12px;&quot;&gt;JCT&lt;/font&gt;" style="rounded=1;whiteSpace=wrap;html=1;fillColor=#ffe6cc;strokeColor=#d79b00;fontSize=14;fontStyle=1;" parent="tfnsPjrBUmNJ-38otPb_-39" vertex="1">
          <mxGeometry x="390" y="31.5" width="69" height="22" as="geometry" />
        </mxCell>
        <mxCell id="30" value="&lt;font style=&quot;font-size: 12px;&quot;&gt;Memory&lt;/font&gt;" style="rounded=1;whiteSpace=wrap;html=1;fillColor=#ffe6cc;strokeColor=#d79b00;fontSize=14;fontStyle=1;" parent="tfnsPjrBUmNJ-38otPb_-39" vertex="1">
          <mxGeometry x="390" y="145.5" width="69" height="22" as="geometry" />
        </mxCell>
        <mxCell id="31" value="" style="endArrow=classic;html=1;rounded=0;exitX=1;exitY=0.3;exitDx=0;exitDy=0;entryX=0;entryY=0.5;entryDx=0;entryDy=0;strokeWidth=1;strokeColor=#82b366;" parent="tfnsPjrBUmNJ-38otPb_-39" source="26" target="29" edge="1">
          <mxGeometry width="50" height="50" relative="1" as="geometry">
            <mxPoint x="200" y="277.5" as="sourcePoint" />
            <mxPoint x="250" y="227.5" as="targetPoint" />
          </mxGeometry>
        </mxCell>
        <mxCell id="32" value="" style="endArrow=classic;html=1;rounded=0;exitX=1;exitY=0.7;exitDx=0;exitDy=0;entryX=0;entryY=0.5;entryDx=0;entryDy=0;strokeWidth=1;strokeColor=#82b366;" parent="tfnsPjrBUmNJ-38otPb_-39" source="26" target="30" edge="1">
          <mxGeometry width="50" height="50" relative="1" as="geometry">
            <mxPoint x="200" y="277.5" as="sourcePoint" />
            <mxPoint x="250" y="227.5" as="targetPoint" />
          </mxGeometry>
        </mxCell>
        <mxCell id="tfnsPjrBUmNJ-38otPb_-33" value="&lt;font style=&quot;font-size: 12px;&quot;&gt;CPU Core&lt;/font&gt;" style="rounded=1;whiteSpace=wrap;html=1;fillColor=#ffe6cc;strokeColor=#d79b00;fontSize=14;fontStyle=1;" vertex="1" parent="tfnsPjrBUmNJ-38otPb_-39">
          <mxGeometry x="390" y="97.5" width="69" height="22" as="geometry" />
        </mxCell>
        <mxCell id="tfnsPjrBUmNJ-38otPb_-34" value="&lt;font style=&quot;font-size: 12px;&quot;&gt;GPU Mem&lt;/font&gt;" style="rounded=1;whiteSpace=wrap;html=1;fillColor=#ffe6cc;strokeColor=#d79b00;fontSize=14;fontStyle=1;" vertex="1" parent="tfnsPjrBUmNJ-38otPb_-39">
          <mxGeometry x="390" y="195.5" width="69" height="22" as="geometry" />
        </mxCell>
        <mxCell id="tfnsPjrBUmNJ-38otPb_-37" value="" style="endArrow=classic;html=1;rounded=0;exitX=1;exitY=0.5;exitDx=0;exitDy=0;entryX=-0.087;entryY=0.636;entryDx=0;entryDy=0;strokeWidth=1;strokeColor=#82b366;entryPerimeter=0;" edge="1" parent="tfnsPjrBUmNJ-38otPb_-39" source="26" target="tfnsPjrBUmNJ-38otPb_-33">
          <mxGeometry width="50" height="50" relative="1" as="geometry">
            <mxPoint x="340" y="137.5" as="sourcePoint" />
            <mxPoint x="410" y="77.5" as="targetPoint" />
          </mxGeometry>
        </mxCell>
        <mxCell id="tfnsPjrBUmNJ-38otPb_-38" value="" style="endArrow=classic;html=1;rounded=0;exitX=1.013;exitY=0.91;exitDx=0;exitDy=0;entryX=0;entryY=0.5;entryDx=0;entryDy=0;strokeWidth=1;strokeColor=#82b366;exitPerimeter=0;" edge="1" parent="tfnsPjrBUmNJ-38otPb_-39" source="26" target="tfnsPjrBUmNJ-38otPb_-34">
          <mxGeometry width="50" height="50" relative="1" as="geometry">
            <mxPoint x="360" y="128.5" as="sourcePoint" />
            <mxPoint x="424" y="117.5" as="targetPoint" />
          </mxGeometry>
        </mxCell>
      </root>
    </mxGraphModel>
  </diagram>
</mxfile>
